<?xml version="1.0" encoding="UTF-8" standalone="no"?>
<!-- Created with Inkscape (http://www.inkscape.org/) -->

<svg
   xmlns:dc="http://purl.org/dc/elements/1.1/"
   xmlns:cc="http://creativecommons.org/ns#"
   xmlns:rdf="http://www.w3.org/1999/02/22-rdf-syntax-ns#"
   xmlns:svg="http://www.w3.org/2000/svg"
   xmlns="http://www.w3.org/2000/svg"
   xmlns:sodipodi="http://sodipodi.sourceforge.net/DTD/sodipodi-0.dtd"
   xmlns:inkscape="http://www.inkscape.org/namespaces/inkscape"
   width="233.63966"
   height="369.66251"
   id="svg3048"
   version="1.1"
   inkscape:version="0.48.4 r9939"
   sodipodi:docname="New document 4">
  <defs
     id="defs3050" />
  <sodipodi:namedview
     id="base"
     pagecolor="#ffffff"
     bordercolor="#666666"
     borderopacity="1.0"
     inkscape:pageopacity="0.0"
     inkscape:pageshadow="2"
     inkscape:zoom="0.35"
     inkscape:cx="116.81983"
     inkscape:cy="144.11453"
     inkscape:document-units="px"
     inkscape:current-layer="layer1"
     showgrid="false"
     fit-margin-top="0"
     fit-margin-left="0"
     fit-margin-right="0"
     fit-margin-bottom="0"
     inkscape:window-width="816"
     inkscape:window-height="660"
     inkscape:window-x="622"
     inkscape:window-y="252"
     inkscape:window-maximized="0" />
  <metadata
     id="metadata3053">
    <rdf:RDF>
      <cc:Work
         rdf:about="">
        <dc:format>image/svg+xml</dc:format>
        <dc:type
           rdf:resource="http://purl.org/dc/dcmitype/StillImage" />
        <dc:title></dc:title>
      </cc:Work>
    </rdf:RDF>
  </metadata>
  <g
     inkscape:label="Layer 1"
     inkscape:groupmode="layer"
     id="layer1"
     transform="translate(-258.18017,-347.53093)">
    <path
       inkscape:connector-curvature="0"
       d="m 267.9262,347.53093 c -3.1485,0 -6.2875,0 -9.4375,0.0312 -0.45,72.01252 -0.1811,144.04998 -0.2813,216.0625 0.1378,38.20005 -0.2746,76.40623 0.25,114.59375 12.9629,-0.0125 25.9251,0.1 38.875,0 0.3468,-5.5561 0.435,-11.16542 0.4376,-16.78125 l 0,-2.53125 2.5312,0.0312 c 5.5122,0.0361 11.0131,0.002 16.5,-0.0625 0.1324,-5.64287 0.5297,-11.32211 -0.0937,-16.96875 l -0.3437,-3.15625 3.1563,0.40625 c 5.6779,0.72315 11.4181,0.24625 17.0937,0.125 0.10825,-5.4379 0.2305,-10.87967 0.2813,-16.3125 l 0.0312,-2.5 2.5,0.0312 c 4.2902,0.0334 8.5924,-0.014 12.9062,-0.25 l 2.8438,-0.15625 -0.2188,2.84375 c -0.8921,11.89353 1.1173,23.79526 0.4688,35.6875 5.6122,0.18561 11.2237,0.2605 16.8438,0.3125 l 2.4374,0.0312 0.0312,2.4375 c 0.10975,12.05053 0.0821,24.09539 0.2813,36.15625 5.5455,0.10875 11.0922,0.17325 16.6562,0.1875 l 2.4688,0 0.0312,2.46875 c 0.10013,5.62069 0.1469,11.20744 0.125,16.84375 13.0499,0.175 26.1064,0.1375 39.1562,0.0625 0.4703,-5.53521 0.677,-11.1481 0.2813,-16.78125 l -0.1875,-2.75 2.75,0.0625 c 5.5369,0.15421 11.089,0.10775 16.5625,-0.0312 0.1875,-12.98747 0.11875,-25.98119 -0.0312,-38.96875 -5.5759,-0.15247 -11.1412,-0.22275 -16.7187,-0.28125 l -2.4375,-0.0312 -0.0312,-2.4375 c -0.1888,-12.07472 -0.0975,-24.1099 -0.1563,-36.1875 -5.5853,-0.20487 -11.2237,-0.31007 -16.8437,-0.15625 l -2.6563,0.0625 0.0937,-2.65625 c 0.1903,-4.65292 0.2665,-9.28906 0.25,-13.90625 l 0,-2.5 2.5,0 c 24.9506,-0.0441 49.879,-0.0342 74.8438,-0.3125 0.1626,-12.93752 0.2061,-25.87496 -0.0312,-38.8125 -5.6128,0 -11.2157,-0.0418 -16.8126,-0.125 l -2.4374,-0.0312 -0.0312,-2.4375 c -0.0813,-5.6101 -0.1263,-11.22967 -0.0937,-16.84375 -5.5828,-0.1415 -11.1537,-0.17425 -16.75,-0.1875 l -2.4688,0 -0.0312,-2.46875 c -0.0614,-5.56485 -0.11,-11.12447 -0.2188,-16.6875 -5.569,-0.24875 -11.1726,-0.39775 -16.8125,-0.34375 l -2.5313,0.0312 0,-2.53125 c -0.0125,-5.63459 -0.0387,-11.2573 -0.0937,-16.875 -5.6156,0.0329 -11.2401,-0.0112 -16.8437,-0.125 l -2.4376,-0.0625 0,-2.4375 c -0.0147,-5.51781 -0.0557,-11.00412 -0.2187,-16.5 -5.5428,-0.30375 -11.0979,-0.35275 -16.6875,-0.375 l -2.4688,0 -0.0312,-2.46875 c -0.0884,-5.61472 -0.147,-11.21241 -0.125,-16.84375 -5.6222,-0.0219 -11.2323,-0.0648 -16.8438,-0.15625 l -2.375,-0.0312 -0.0937,-2.375 c -0.201,-5.61289 -0.4262,-11.25014 -0.4375,-16.875 -5.4825,-0.13025 -10.9606,-0.1525 -16.4691,-0.15625 l -2.4374,0 -0.0626,-2.4375 c -0.136,-5.58812 -0.211,-11.20748 -0.1562,-16.8125 -5.6149,-0.0655 -11.232,-0.1055 -16.8438,-0.1875 l -2.375,-0.0312 -0.0937,-2.375 c -0.2199,-5.61233 -0.3012,-11.22542 -0.3125,-16.875 -5.5851,-0.13062 -11.1559,-0.16025 -16.75,-0.1875 l -2.4688,0 -0.0312,-2.46875 c -0.0352,-5.58175 -0.0679,-11.1758 -0.1875,-16.75 -5.6119,-0.0328 -11.252,-0.0469 -16.875,-0.0937 l -2.43751,-0.0312 -0.0312,-2.4375 c -0.0514,-5.59918 -0.0825,-11.22472 -0.0938,-16.84375 -5.6177,-0.16325 -11.2802,-0.127 -16.9375,-0.0937 l -2.4687,0 -0.0313,-2.46875 c -0.0355,-5.63527 -0.1357,-11.27314 -0.375,-16.875 -3.1437,-0.0188 -6.2891,-0.0312 -9.4375,-0.0312 z"
       id="path4097"
       style="font-size:medium;font-style:normal;font-variant:normal;font-weight:normal;font-stretch:normal;text-indent:0;text-align:start;text-decoration:none;line-height:normal;letter-spacing:normal;word-spacing:normal;text-transform:none;direction:ltr;block-progression:tb;writing-mode:lr-tb;text-anchor:start;color:#000000;fill:#ffffff;fill-opacity:1;fill-rule:nonzero;stroke:none;stroke-width:5;marker:none;visibility:visible;display:inline;overflow:visible;enable-background:accumulate;font-family:Acquaintance;-inkscape-font-specification:Acquaintance" />
    <path
       inkscape:connector-curvature="0"
       d="m 258.48858,347.57468 c 6.3,-0.0625 12.6,-0.05 18.8875,-0.0125 0.275,6.4375 0.425,12.875 0.425,19.3125 6.4625,-0.05 12.925,-0.05 19.375,0.1375 0.0125,6.425 0.025,12.85 0.1,19.2625 -6.5125,-0.0375 -13.025,-0.025 -19.5375,0.0125 -0.05,90.7375 0.1875,181.4625 0.1125,272.1875 6.4375,0.075 12.8625,0.0875 19.3,-0.05 -0.0625,-6.4125 -0.0375,-12.8125 0.025,-19.225 6.4375,-0.1125 12.9375,-0.6625 19.3125,0.4875 1.05,6.35 0.45,12.8 0.3,19.2 -6.3125,0.075 -12.6375,0.1375 -18.9625,0.0625 0.05,6.425 -0.1,12.8625 -0.5,19.275 -12.95,0.1 -25.9125,-0.025 -38.875,-0.0125 -0.525,-38.1875 -0.1,-76.3875 -0.2375,-114.5875 0.1,-72.0125 -0.175,-144.0375 0.275,-216.05 z"
       id="path3022"
       style="fill:#1c1c1c" />
    <path
       inkscape:connector-curvature="0"
       d="m 297.27608,386.27468 c 6.4375,0.0625 12.8875,0.0875 19.325,0.125 0.1375,6.4 0.1875,12.8 0.225,19.2 6.4125,0.025 12.825,0.0625 19.2375,0.2125 0.0125,6.4125 0.0125,12.8375 0.3375,19.2625 6.425,0.1125 12.85,0.1375 19.275,0.2125 -0.0625,6.4 -0.0125,12.8125 0.175,19.2125 6.325,-0.0125 12.65,0.05 18.9625,0.2 0.0125,6.4125 0.275,12.825 0.5,19.2375 6.4,0.125 12.8125,0.15 19.225,0.175 -0.025,6.4125 0.0125,12.825 0.1375,19.25 6.4,0 12.8125,0.0875 19.2,0.4375 0.1875,6.325 0.25,12.65 0.25,18.9875 6.4125,0.1625 12.825,0.2 19.2375,0.1625 0.0625,6.4375 0.1125,12.875 0.1125,19.3125 -6.5,0.325 -13,0.275 -19.5,0.1 0,-6.425 0.025,-12.8625 0.025,-19.3 -6.525,-0.0875 -13.05,-0.075 -19.5625,-0.0375 0.0875,-6.5125 0.1,-13.0125 -0.0125,-19.5125 -6.4375,0.0125 -12.8875,0.025 -19.325,0.0375 0,-6.4625 0.025,-12.9125 0.0375,-19.3625 -6.525,-0.15 -13.0375,-0.1375 -19.55,-0.0375 0.0125,-6.5125 0.0375,-13.025 -0.0375,-19.5375 -6.4375,0 -12.8875,0.0125 -19.325,0.025 -0.0875,-6.4875 -0.0625,-12.975 -0.1375,-19.4625 -6.475,0 -12.95,0.0125 -19.4125,-0.1375 0.0375,-6.425 0.05,-12.85 -0.0125,-19.275 -6.4125,-0.075 -12.825,-0.0625 -19.2375,-0.025 -0.2,-6.4875 -0.175,-12.975 -0.15,-19.4625 z"
       id="path3024"
       style="fill:#1c1c1c" />
    <path
       inkscape:connector-curvature="0"
       d="m 433.47608,522.26218 c 6.45,-0.175 12.8875,0.1125 19.325,0.4 0.125,6.375 0.175,12.75 0.25,19.125 6.4125,0 12.8125,0.05 19.225,0.2125 -0.0375,6.425 0,12.8625 0.1125,19.2875 6.4125,0.1125 12.8375,0.15 19.2625,0.15 0.2375,12.9375 0.2,25.8625 0.0375,38.8 -25.7875,0.2875 -51.5625,0.2875 -77.3375,0.3375 0.0375,6.3375 0.0625,12.6875 -0.2875,19.025 -6.5,0.325 -13.0125,0.25 -19.5125,0.2 -0.1875,-12.975 -0.175,-25.95 0,-38.9125 25.9125,-0.1625 51.8375,0.075 77.75,-0.0375 0.0875,-6.4875 0.0875,-12.9875 -0.0125,-19.475 -6.475,-0.0375 -12.9625,-0.025 -19.4375,-0.125 0.0125,-6.4375 0.0375,-12.875 -0.0125,-19.3125 -6.4125,-0.0625 -12.8375,-0.05 -19.25,0.0125 -0.2375,-6.5625 -0.2375,-13.125 -0.1125,-19.6875 z"
       id="path3028"
       style="fill:#1c1c1c" />
    <path
       inkscape:connector-curvature="0"
       d="m 336.15108,600.16218 c 6.4375,-0.0375 12.875,-0.025 19.3125,0.0125 0.2375,6.65 0.5375,13.35 -0.375,19.9625 -6.05,0.475 -12.1125,0.4125 -18.1625,0.35 -0.025,6.2625 -0.175,12.525 -0.3,18.8 -6.4375,0.1375 -12.9625,0.8 -19.3375,-0.4125 -1.35,-6.3125 -0.7,-12.8125 -0.5875,-19.2 6.45,-0.0375 12.9,-0.0375 19.35,-0.0375 -0.025,-6.4875 -0.025,-12.9875 0.1,-19.475 z"
       id="path3032"
       style="fill:#1c1c1c" />
    <path
       inkscape:connector-curvature="0"
       d="m 355.08858,620.13718 c 6.6375,-0.725 13.3125,-0.5125 19.9625,-0.3875 0.1375,12.925 0.0125,25.8625 0.0875,38.7875 6.4875,-0.0125 12.9625,-0.0125 19.45,0.125 0.0375,12.875 -0.1125,25.75 0.0875,38.6375 12.9875,0.2 26,-0.4125 38.975,0.35 0.75,6.475 0.35,13 -0.2,19.475 -13.05,0.075 -26.0875,0.125 -39.1375,-0.05 0.025,-6.4375 -0.025,-12.8625 -0.1625,-19.3 -6.375,0.0125 -12.7625,-0.075 -19.1375,-0.2 -0.2125,-12.875 -0.1625,-25.75 -0.3,-38.6125 -6.425,-0.05 -12.85,-0.1375 -19.275,-0.35 0.7,-12.8375 -1.85,-25.675 -0.35,-38.475 z"
       id="path3034"
       style="fill:#1c1c1c" />
    <path
       inkscape:connector-curvature="0"
       d="m 414.06358,619.59968 c 6.4625,-0.3 12.9375,-0.125 19.4125,0.1125 0.0625,12.875 -0.0875,25.75 0.1625,38.6375 6.4,0.0625 12.7875,0.1375 19.1875,0.3125 0.15,12.9875 0.225,25.975 0.0375,38.9625 -6.4,0.1625 -12.8125,0.325 -19.2125,0.025 -0.725,-12.9375 -0.125,-25.9125 -0.25,-38.8625 -6.5125,-0.1375 -13.025,-0.1125 -19.525,-0.1625 -0.0125,-13 -0.15,-26.025 0.1875,-39.025 z"
       id="path3036"
       style="fill:#1c1c1c" />
  </g>
</svg>
